# xmcd
#
# Track frame offsets: 
#        150
#        1439
#        21590
#        38431
#        55268
#        73817
#        81754
#        93062
#        111418
#        121371
#        131164
#        146745
#        160802
#        169315
#        181992
#
# Disc length: 2734 seconds
#
# Revision: 0
# Processed by: cddbd v1.5.1PL2 Copyright (c) Steve Scherf et al.
# Submitted via: ExactAudioCopy v0.95a5
#
DISCID=cf0aac0f
DTITLE=Back At The Ranch - Meanwhile
DYEAR=2004
DGENRE=Western Swing
TTITLE0=Intro
TTITLE1=Guitar Rag
TTITLE2=Ain't Misbehavin'
TTITLE3=Boss of the Plains
TTITLE4=Old Mexico
TTITLE5=Texas In My Soul
TTITLE6=Scene 1 Cow Tipper
TTITLE7=Slap Your Granny Grits, Scene 2&3
TTITLE8=Tom's Feed, Scene 4 Cow Tipper
TTITLE9=Cannonball Rag
TTITLE10=Tryin' Not to Love You
TTITLE11=Little Red Wagon
TTITLE12=Clover Honey
TTITLE13=Tumbling Tumbleweeds
TTITLE14=Outro
EXTD=
EXTT0=
EXTT1=
EXTT2=
EXTT3=
EXTT4=
EXTT5=
EXTT6=
EXTT7=
EXTT8=
EXTT9=
EXTT10=
EXTT11=
EXTT12=
EXTT13=
EXTT14=
PLAYORDER=
